<?xml version="1.0" encoding="UTF-8" standalone="no"?><!-- Generator: Gravit.io --><svg xmlns="http://www.w3.org/2000/svg" xmlns:xlink="http://www.w3.org/1999/xlink" style="isolation:isolate" viewBox="0 0 80 80" width="480pt" height="480pt"><defs><clipPath id="_clipPath_1wONu42eqtXCsT2rEXBQVGPHq02JfBgq"><rect width="480" height="480"/></clipPath></defs><g clip-path="url(#_clipPath_1wONu42eqtXCsT2rEXBQVGPHq02JfBgq)"><mask id="_mask_htkGqyF0IxgIlgjeZ0Q49C1fYEJCvn9S"><path d=" M 20 240 C 20 361.421 118.579 460 240 460 C 361.421 460 460 361.421 460 240 C 460 118.579 361.421 20 240 20 C 118.579 20 20 118.579 20 240 Z " fill="white" stroke="none"/></mask><path d=" M 20 240 C 20 361.421 118.579 460 240 460 C 361.421 460 460 361.421 460 240 C 460 118.579 361.421 20 240 20 C 118.579 20 20 118.579 20 240 Z " fill="none"/><path d=" M 20 240 C 20 361.421 118.579 460 240 460 C 361.421 460 460 361.421 460 240 C 460 118.579 361.421 20 240 20 C 118.579 20 20 118.579 20 240 Z " fill="none" mask="url(#_mask_htkGqyF0IxgIlgjeZ0Q49C1fYEJCvn9S)" vector-effect="non-scaling-stroke" stroke-width="10" stroke="rgb(0,0,0)" stroke-linejoin="miter" stroke-linecap="square" stroke-miterlimit="3"/><path d=" M 170 190 C 170 134.808 221.53 90 285 90 C 348.47 90 400 134.808 400 190 C 400 245.192 348.47 290 285 290 C 221.53 290 170 245.192 170 190 Z " fill="none" vector-effect="non-scaling-stroke" stroke-width="5" stroke="rgb(0,0,0)" stroke-linejoin="miter" stroke-linecap="butt" stroke-miterlimit="3"/><ellipse vector-effect="non-scaling-stroke" cx="195" cy="190" rx="115" ry="100" fill="none" stroke-width="5" stroke="rgb(0,0,0)" stroke-linejoin="miter" stroke-linecap="butt" stroke-miterlimit="3"/><ellipse vector-effect="non-scaling-stroke" cx="240.00000000000006" cy="314.99999999999994" rx="100" ry="115" fill="none" stroke-width="5" stroke="rgb(0,0,0)" stroke-linejoin="miter" stroke-linecap="butt" stroke-miterlimit="3"/><clipPath id="_clipPath_BHlhdIQo2WMj3u0VBXhHBpu9gh1aBvAy"><ellipse vector-effect="non-scaling-stroke" cx="240.00000000000006" cy="314.99999999999994" rx="100" ry="115" fill="none" stroke-width="5" stroke="rgb(0,0,0)" stroke-linejoin="miter" stroke-linecap="butt" stroke-miterlimit="3"/></clipPath><g clip-path="url(#_clipPath_BHlhdIQo2WMj3u0VBXhHBpu9gh1aBvAy)"><ellipse vector-effect="non-scaling-stroke" cx="-32.72727272727272" cy="105.90909090909076" rx="0.9090909090909083" ry="1.0454545454545467" fill="rgb(235,235,235)" stroke-width="2" stroke="rgb(0,0,0)" stroke-linejoin="miter" stroke-linecap="butt" stroke-miterlimit="3"/></g><ellipse vector-effect="non-scaling-stroke" cx="240.00000000000006" cy="314.99999999999994" rx="100" ry="115" fill="transparent" stroke-width="5" stroke="rgb(0,0,0)" stroke-linejoin="miter" stroke-linecap="butt" stroke-miterlimit="3"/><ellipse vector-effect="non-scaling-stroke" cx="239.99999999999994" cy="240" rx="25" ry="30" fill="rgb(206,208,206)" stroke-width="3" stroke="rgb(0,0,0)" stroke-linejoin="miter" stroke-linecap="butt" stroke-miterlimit="3"/><g/></g></svg>
